<?xml version="1.0" encoding="UTF-8"?> <svg xmlns="http://www.w3.org/2000/svg" width="220" height="70" viewBox="0 0 220 70" fill="none"> <g filter="url(#filter0_bi_23_5)"> <rect width="220" height="70" rx="6" fill="#F1F2B9"></rect> <rect width="220" height="70" rx="6" fill="url(#paint0_linear_23_5)" fill-opacity="0.9"></rect> <rect x="0.274932" y="0.274932" width="219.45" height="69.4501" rx="5.72507" stroke="url(#paint1_linear_23_5)" stroke-opacity="0.18" stroke-width="0.549864"></rect> <rect x="0.274932" y="0.274932" width="219.45" height="69.4501" rx="5.72507" stroke="url(#paint2_linear_23_5)" stroke-opacity="0.32" stroke-width="0.549864"></rect> </g> <path d="M45.6212 39V24.579H43.2292L43.6892 23.659H46.6332V39H45.6212ZM58.958 39H49.505L55.393 32.514C56.2057 31.594 56.7653 30.904 57.072 30.444C57.67 29.524 57.969 28.65 57.969 27.822C57.969 26.8407 57.6317 26.0203 56.957 25.361C56.2977 24.7017 55.4467 24.372 54.404 24.372C53.3 24.372 52.4183 24.7477 51.759 25.499C51.161 26.1583 50.862 26.994 50.862 28.006H49.85C49.85 26.7027 50.2563 25.6293 51.069 24.786C51.9277 23.8967 53.0623 23.452 54.473 23.452C55.7917 23.452 56.8803 23.8737 57.739 24.717C58.5977 25.545 59.027 26.58 59.027 27.822C59.027 28.9107 58.659 29.961 57.923 30.973C57.5703 31.4637 57.118 32.0157 56.566 32.629L51.644 38.08H58.958V39ZM69.6358 23.659H78.2838V39H77.2718V24.579H70.6478V33.503C70.6478 34.2697 70.6324 34.8677 70.6018 35.297C70.5864 35.711 70.4944 36.2093 70.3258 36.792C70.1571 37.3747 69.9041 37.85 69.5668 38.218C69.0148 38.8313 68.2711 39.138 67.3358 39.138C67.0904 39.138 66.7838 39.092 66.4158 39V38.08C66.7224 38.172 67.0061 38.218 67.2668 38.218C67.8648 38.218 68.3631 38.0187 68.7618 37.62C69.0378 37.344 69.2371 36.953 69.3598 36.447C69.4978 35.941 69.5744 35.504 69.5898 35.136C69.6204 34.7527 69.6358 34.2083 69.6358 33.503V23.659ZM89.7864 23.659V24.579H83.4384V30.145H89.6484V31.065H83.4384V38.08H89.7864V39H82.4264V23.659H89.7864ZM100.317 24.579H96.3384V39H95.3264V24.579H91.3474V23.659H100.317V24.579ZM109.549 25.752C111.082 24.2187 112.968 23.452 115.207 23.452C117.446 23.452 119.332 24.2187 120.865 25.752C122.398 27.2853 123.165 29.156 123.165 31.364C123.165 33.572 122.398 35.4427 120.865 36.976C119.332 38.494 117.446 39.253 115.207 39.253C112.968 39.253 111.082 38.494 109.549 36.976C108.016 35.4427 107.249 33.572 107.249 31.364C107.249 29.156 108.016 27.2853 109.549 25.752ZM110.285 36.332C111.604 37.666 113.244 38.333 115.207 38.333C117.17 38.333 118.81 37.666 120.129 36.332C121.448 34.9827 122.107 33.3267 122.107 31.364C122.107 29.386 121.448 27.73 120.129 26.396C118.81 25.0467 117.17 24.372 115.207 24.372C113.244 24.372 111.604 25.0467 110.285 26.396C108.966 27.73 108.307 29.386 108.307 31.364C108.307 33.3267 108.966 34.9827 110.285 36.332ZM126.472 23.659H137.788V39H136.776V24.579H127.484V39H126.472V23.659ZM141.925 39V23.659H142.937V30.26H145.605C149.132 30.26 150.895 31.663 150.895 34.469C150.895 35.7417 150.481 36.815 149.653 37.689C148.841 38.563 147.599 39 145.927 39H141.925ZM142.937 31.18V38.08H145.513C147.062 38.08 148.181 37.7427 148.871 37.068C149.515 36.4547 149.837 35.5883 149.837 34.469C149.837 33.135 149.308 32.192 148.25 31.64C147.652 31.3333 146.679 31.18 145.329 31.18H142.937ZM152.643 23.659H153.655V39H152.643V23.659ZM165.027 24.579H161.048V39H160.036V24.579H156.057V23.659H165.027V24.579ZM176.21 39L174.163 33.963H167.631L165.584 39H164.48L170.943 23.199L177.314 39H176.21ZM167.999 33.043H173.795L170.92 25.775L167.999 33.043Z" fill="#201F1F"></path> <defs> <filter id="filter0_bi_23_5" x="-15" y="-15" width="250" height="100" filterUnits="userSpaceOnUse" color-interpolation-filters="sRGB"> <feFlood flood-opacity="0" result="BackgroundImageFix"></feFlood> <feGaussianBlur in="BackgroundImageFix" stdDeviation="7.5"></feGaussianBlur> <feComposite in2="SourceAlpha" operator="in" result="effect1_backgroundBlur_23_5"></feComposite> <feBlend mode="normal" in="SourceGraphic" in2="effect1_backgroundBlur_23_5" result="shape"></feBlend> <feColorMatrix in="SourceAlpha" type="matrix" values="0 0 0 0 0 0 0 0 0 0 0 0 0 0 0 0 0 0 127 0" result="hardAlpha"></feColorMatrix> <feOffset></feOffset> <feGaussianBlur stdDeviation="1.5"></feGaussianBlur> <feComposite in2="hardAlpha" operator="arithmetic" k2="-1" k3="1"></feComposite> <feColorMatrix type="matrix" values="0 0 0 0 1 0 0 0 0 1 0 0 0 0 1 0 0 0 0.09 0"></feColorMatrix> <feBlend mode="normal" in2="shape" result="effect2_innerShadow_23_5"></feBlend> </filter> <linearGradient id="paint0_linear_23_5" x1="36.4516" y1="-14.5339" x2="167.471" y2="123.122" gradientUnits="userSpaceOnUse"> <stop stop-color="white" stop-opacity="0"></stop> <stop offset="0.453125" stop-color="white" stop-opacity="0.54"></stop> <stop offset="1" stop-color="white" stop-opacity="0"></stop> </linearGradient> <linearGradient id="paint1_linear_23_5" x1="102.45" y1="-5.35901e-06" x2="105.027" y2="79.0122" gradientUnits="userSpaceOnUse"> <stop stop-color="#F0D9D9"></stop> <stop offset="1" stop-color="#C4C4C4" stop-opacity="0.7"></stop> </linearGradient> <linearGradient id="paint2_linear_23_5" x1="15.5554" y1="-19.5893" x2="160.349" y2="56.8141" gradientUnits="userSpaceOnUse"> <stop stop-color="white" stop-opacity="0"></stop> <stop offset="0.526042" stop-color="white"></stop> <stop offset="1" stop-color="white" stop-opacity="0"></stop> </linearGradient> </defs> </svg> 