<svg version="1.2" xmlns="http://www.w3.org/2000/svg" viewBox="0 0 560 138" width="250" height="62">
	<title>fix-logo</title>
	<style>
		tspan { white-space:pre } 
		.s0 { fill: #ffffff } 
		.t1 { font-size: 40px;fill: #ffffff;font-family: "Lato" } 
	</style>
	<g>
		<g>
			<g>
				<path class="s0" d="m37.1 54.1l-4.9-13.5h-25.9l-4.7 13.5h-1.5l18.6-52.7h3.9l18.9 52.7zm-30.2-14.9h24.9l-12.7-35.1zm84.2-11.4c0 15.8-10.1 27.1-24.1 27.1-13.7 0-23.9-11.3-23.9-27.1 0-15.8 10.2-27 24.6-27 7.6 0 13.4 3.3 17.8 8.5l-3.9 2c-4.2-5.4-9.4-8.8-16-8.8-12.2 0-19.8 10.4-18.5 25.3 1.3 14.8 10.8 25.3 22.1 25.3 11.2 0 18.7-9.8 18-23.9h-13.5v-1.4zm39.6 26.2l-4.9-13.4h-25.8l-4.7 13.4h-1.6l18.7-52.6h3.9l18.9 52.6zm-30.3-14.8h24.9l-12.7-35.1zm74.2-36.5h-30.6v25.2h27.7v1.3h-27.7v24.8h-4.4v-52.7h35zm84.9-1.3h1.6v52.6h-2.9l-30.8-32.8q0.6 3.2 0.6 6.6c0 15.9-10.1 27.1-24.6 27.1-14.4 0-24.7-11.2-24.7-27.1 0-15.8 10.3-27 24.7-27 7.5 0 13.9 3 18.2 8.2l37.9 40.2zm-53.9 51.8c12 0 19.6-10.5 18.4-25.4-1.3-14.8-10.8-25.3-22.8-25.3-12.1 0-19.7 10.5-18.4 25.3 1.3 14.9 10.8 25.4 22.8 25.4zm85.4 1.7c-14.4 0-24.7-11.2-24.7-27.1 0-15.8 10.3-27 24.7-27 14.4 0 24.6 11.2 24.6 27 0 15.9-10.2 27.1-24.6 27.1zm2.2-1.7c12 0 19.6-10.5 18.3-25.4-1.2-14.8-10.7-25.3-22.7-25.3-12.1 0-19.7 10.5-18.4 25.3 1.3 14.9 10.7 25.4 22.8 25.4zm66.9-51.8l-18.7 52.7h-3.9l-18.9-52.7h4.5l17.7 49.1 17.7-49.1zm60.9 0h1.5l-17.2 52.7h-3.8l-9.4-26.4-9.4 26.4h-3.7l-17.4-52.7h4.4l16.3 49.1 9-25-8.6-24.1h4.4l6.5 17.9 6.4-17.9h1.4l-7.1 20 10.6 29.1zm40.9 1.3h-30.6v23.7h27.7v1.4h-27.7v24.9h30.6v1.3h-35v-52.6h35zm21.4-1.8c17.2 0.3 27.3 11.3 27.3 26.8 0 15.4-10.1 26.1-24.6 26.3-5.3 0.1-7.6 0.1-18.5 0v-52.7c8-0.2 10-0.5 15.8-0.4zm2.3 51.8c14.7 0.2 22.3-10.7 21-25-1.3-14.5-10.8-25.4-24.1-25.4-4.7 0-8.8 0.5-10.6 0.6v49c1.3 0.2 6.8 0.7 13.7 0.8zm46.9-51.8c17.1 0.3 27.3 11.3 27.3 26.8 0 15.4-10.2 26.1-24.6 26.3-5.4 0.1-7.6 0.1-18.5 0v-52.7c7.9-0.2 9.9-0.5 15.8-0.4zm2.2 51.8c14.7 0.2 22.3-10.7 21-25-1.3-14.5-10.7-25.4-24.1-25.4-4.7 0-8.8 0.5-10.6 0.6v49c1.4 0.2 6.9 0.7 13.7 0.8z"/>
			</g>
		</g>
	</g>
	<g id="f7ad9d1d-d8e5-4235-8197-ee11f9a5468b">
		<text id="Ведущий Москва
" style="transform: matrix(1.23,0,0,1.23,1.828,127.361)" >
			<tspan x="0" y="0" class="t1">Ведущий Москва
</tspan>
		</text>
	</g>
</svg>