<svg viewBox="0 0 369.66666666666663 91.80452643721948" preserveAspectRatio="xMidYMid meet" class="css-8aabad" id="ceecgbbh"><defs id="SvgjsDefs9520"><linearGradient id="SvgjsLinearGradient9527"><stop id="SvgjsStop9528" stop-color="#7f00ff" offset="0"></stop><stop id="SvgjsStop9529" stop-color="#e100ff" offset="1"></stop></linearGradient></defs><g id="SvgjsG9521" featurekey="symbolFeature-0" transform="matrix(1.0084751863184682,0,0,1.0084751863184682,-11.334252942183577,-4.865893062513674)" fill="#fff"><path xmlns="http://www.w3.org/2000/svg" fill-rule="evenodd" clip-rule="evenodd" d="M44.516,31.751c0.222-1.221,0.051-2.647,0.629-3.085  c3.939-2.996,2.395-7.185,2.547-10.948c0.173-4.278,0.04-8.569,0.04-12.856c0.449-0.012,0.897-0.025,1.346-0.037  c0,1.858,0,3.715,0,5.572c0,3.5-0.029,7.001,0.008,10.501c0.028,2.63-0.688,5.416,2.296,7.288c0.75,0.472,0.689,2.234,1.094,3.745  c9.67,1.735,17.663,6.536,22.856,15.403c3.956,6.753,5.024,14.082,3.653,21.683C76.38,83.462,62.521,94.543,47.829,94.167  C33.033,93.786,19.832,82.505,17.741,68.18C15.441,52.412,23.947,35.872,44.516,31.751z M41.678,68.753c4.395,0,8.43,0,12.503,0  c0-4.382,0-8.425,0-12.421c-4.34,0-8.372,0-12.503,0C41.678,60.554,41.678,64.41,41.678,68.753z M67.215,57.275  c-3.87-0.371-7.401-0.708-11.062-1.059c0,4.325,0,8.272,0,12.72c3.766-0.368,7.288-0.712,11.062-1.08  C67.215,64.336,67.215,61.134,67.215,57.275z M54.402,54.504c-0.307-3.197-0.427-5.928-0.915-8.591  c-0.138-0.755-1.291-1.782-2.072-1.874c-2.203-0.261-4.477-0.272-6.677-0.015c-0.806,0.094-2.003,1.131-2.135,1.891  c-0.479,2.737-0.576,5.539-0.842,8.589c3.19,0,6.026,0,8.862,0C51.719,54.504,52.816,54.504,54.402,54.504z M54.967,81.457  c10.589-1.614,10.611-0.769,11.803-11.938c-3.569,0.351-7.077,0.696-10.68,1.05C55.715,74.215,55.361,77.627,54.967,81.457z   M29.844,69.515c1.593,10.633,1.79,10.84,11.187,11.746c-0.352-3.606-0.695-7.132-1.05-10.771  C36.53,70.158,33.356,69.854,29.844,69.515z M54.944,44.639c0.406,3.524,0.771,6.68,1.151,9.972  c3.654,0.313,7.08,0.607,10.566,0.906C65.596,45.785,65.518,45.675,54.944,44.639z M41.112,44.418  c-9.364,0.974-11.391,3.175-10.487,11.127c3.149-0.332,6.297-0.666,9.416-0.995C40.418,50.977,40.744,47.897,41.112,44.418z   M43.208,42.297c3.361,0,6.425,0,9.499,0c-0.37-6.687-0.768-7.311-4.53-7.295C43.903,35.02,43.438,35.683,43.208,42.297z   M27.876,57.853c-7.508,0.723-7.881,1.051-7.273,6.321c0.279,2.425,2.871,3.366,7.273,2.565  C27.876,63.797,27.876,60.83,27.876,57.853z M75.92,58.958c-2.292-0.436-4.533-0.859-6.866-1.301c0,3.355,0,6.288,0,9.198  C75.874,67.638,76.634,66.809,75.92,58.958z M43.283,83.738c0.935,7.139,1.18,7.468,6.057,6.939c4.744-0.513,2.12-4.499,3.935-6.939  C49.487,83.738,46.552,83.738,43.283,83.738z M63.602,81.796c-9.116,0.988-10.096,1.819-9.698,8.238  C60.266,89.073,61.5,88.024,63.602,81.796z M32.942,44.421c8.759-0.934,10.076-2.148,9.236-8.438  C36.874,36.34,34.014,39.412,32.942,44.421z M53.848,35.806c-0.068,6.778,2.054,8.481,9.573,7.941  C62.399,38.657,59.069,36.282,53.848,35.806z M75.263,68.042c-7.146,1.199-7.605,1.803-7.891,10.018  C73.593,76.071,75.113,74.192,75.263,68.042z M75.324,56.91c-0.291-5.313-3.229-7.936-7.888-9.059  C68.691,57.067,67.608,56.102,75.324,56.91z M25.422,46.427c0.259,0.256,0.519,0.51,0.778,0.764c3.548-0.944,6.37-2.584,6.5-7.642  C29.981,42.119,27.702,44.272,25.422,46.427z M71.571,78.751c-4.763,0.624-6.672,2.876-6.599,7  C66.972,83.629,68.973,81.508,71.571,78.751z M25.572,79.477c2.078,2.048,4.156,4.098,6.939,6.841  C31.999,81.316,29.718,79.469,25.572,79.477z M69.573,47.638c0.43-0.373,0.86-0.746,1.292-1.119  c-1.945-2.183-3.89-4.365-5.836-6.547c-0.471,0.459-0.939,0.919-1.409,1.378C65.604,43.447,67.587,45.543,69.573,47.638z   M51.695,30.17c-1.69-1.004-2.597-1.978-3.349-1.871c-0.778,0.112-1.402,1.276-2.093,1.98c0.688,0.548,1.36,1.512,2.066,1.535  C49.146,31.842,50,31.049,51.695,30.17z"></path><path xmlns="http://www.w3.org/2000/svg" fill-rule="evenodd" clip-rule="evenodd" d="M75.909,42.665c-0.561-4.304-2.524-6.816-6.996-7.274  c4.646-0.028,6.375-2.592,6.598-7.522c1.87,6.308,1.87,6.308,7.722,7.65C78.53,36.318,75.358,37.687,75.909,42.665z"></path><path xmlns="http://www.w3.org/2000/svg" fill-rule="evenodd" clip-rule="evenodd" d="M25.515,24.186c-0.562-4.304-2.524-6.816-6.997-7.273  c4.647-0.028,6.375-2.592,6.598-7.523c1.87,6.309,1.87,6.309,7.721,7.65C28.134,17.84,24.964,19.209,25.515,24.186z"></path><path xmlns="http://www.w3.org/2000/svg" fill-rule="evenodd" clip-rule="evenodd" d="M18.235,95.858c-0.561-4.305-2.522-6.816-6.996-7.273  c4.647-0.028,6.375-2.593,6.598-7.523c1.871,6.308,1.871,6.308,7.721,7.649C20.855,89.513,17.685,90.881,18.235,95.858z"></path><path xmlns="http://www.w3.org/2000/svg" fill-rule="evenodd" clip-rule="evenodd" d="M86.549,85.22c-0.562-4.305-2.524-6.816-6.998-7.274  c4.648-0.027,6.375-2.591,6.598-7.522c1.871,6.31,1.871,6.31,7.723,7.65C89.168,78.874,85.997,80.242,86.549,85.22z"></path></g><g id="SvgjsG9522" featurekey="nameFeature-0" transform="matrix(0.8959369738086832,0,0,0.8959369738086832,102.6416258726614,5.535456726928395)" fill="#fff"><path d="M20.08 40 l-2.6 -7.16 l-13.76 0 l-2.48 7.16 l-0.84 0 l9.92 -28 l2.08 0 l10.04 28 l-2.36 0 z M4 32.12 l13.24 0 l-6.76 -18.68 z M48.8 26.08 c0 8.4 -5.4 14.36 -12.84 14.36 c-7.28 0 -12.72 -5.96 -12.72 -14.4 c0 -8.4 5.44 -14.36 13.12 -14.36 c4 0 7.12 1.76 9.44 4.52 l-2.08 1.08 c-2.2 -2.84 -5 -4.68 -8.52 -4.68 c-6.44 0 -10.48 5.56 -9.8 13.44 s5.72 13.48 11.72 13.48 c5.96 0 9.96 -5.24 9.56 -12.72 l-7.16 0 l0 -0.72 l9.28 0 z M69.88 40 l-2.6 -7.16 l-13.76 0 l-2.48 7.16 l-0.84 0 l9.92 -28 l2.08 0 l10.04 28 l-2.36 0 z M53.8 32.12 l13.24 0 l-6.76 -18.68 z M93.24000000000001 12.719999999999999 l-16.28 0 l0 13.4 l14.76 0 l0 0.72 l-14.76 0 l0 13.16 l-2.32 0 l0 -28 l18.6 0 l0 0.72 z M138.36 12 l0.84 0 l0 28 l-1.52 0 l-16.36 -17.44 c0.2 1.12 0.32 2.28 0.32 3.48 c0 8.44 -5.4 14.4 -13.08 14.4 s-13.12 -5.96 -13.12 -14.4 c0 -8.4 5.44 -14.36 13.12 -14.36 c4 0 7.36 1.6 9.68 4.36 l20.12 21.4 l0 -25.44 z M109.72000000000001 39.52 c6.4 0 10.44 -5.6 9.76 -13.48 s-5.72 -13.44 -12.08 -13.44 c-6.44 0 -10.48 5.56 -9.8 13.44 s5.72 13.48 12.12 13.48 z M155.12 40.44 c-7.68 0 -13.12 -5.96 -13.12 -14.4 c0 -8.4 5.44 -14.36 13.12 -14.36 s13.08 5.96 13.08 14.36 c0 8.44 -5.4 14.4 -13.08 14.4 z M156.28 39.52 c6.4 0 10.44 -5.6 9.76 -13.48 s-5.72 -13.44 -12.08 -13.44 c-6.44 0 -10.48 5.56 -9.8 13.44 s5.72 13.48 12.12 13.48 z M191.84 12 l-9.92 28 l-2.08 0 l-10.04 -28 l2.36 0 l9.44 26.08 l9.4 -26.08 l0.84 0 z M224.24 12 l0.76 0 l-9.12 28 l-2 0 l-5.04 -14.04 l-4.96 14.04 l-2 0 l-9.24 -28 l2.36 0 l8.64 26.08 l4.8 -13.28 l-4.6 -12.8 l2.36 0 l3.44 9.48 l3.4 -9.48 l0.76 0 l-3.76 10.6 l5.6 15.48 z M246 12.719999999999999 l-16.28 0 l0 12.6 l14.76 0 l0 0.72 l-14.76 0 l0 13.24 l16.28 0 l0 0.72 l-18.6 0 l0 -28 l18.6 0 l0 0.72 z M257.4 11.760000000000002 c9.12 0.16 14.52 6.04 14.52 14.24 s-5.4 13.88 -13.08 14 c-2.84 0.04 -4.04 0.04 -9.84 0 l0 -28 c4.24 -0.12 5.28 -0.28 8.4 -0.24 z M258.6 39.32 c7.8 0.08 11.84 -5.68 11.16 -13.32 c-0.68 -7.68 -5.72 -13.48 -12.8 -13.48 c-2.52 0 -4.68 0.24 -5.64 0.32 l0 26.04 c0.72 0.12 3.64 0.4 7.28 0.44 z M283.52 11.760000000000002 c9.12 0.16 14.52 6.04 14.52 14.24 s-5.4 13.88 -13.08 14 c-2.84 0.04 -4.04 0.04 -9.84 0 l0 -28 c4.24 -0.12 5.28 -0.28 8.4 -0.24 z M284.72 39.32 c7.8 0.08 11.84 -5.68 11.16 -13.32 c-0.68 -7.68 -5.72 -13.48 -12.8 -13.48 c-2.52 0 -4.68 0.24 -5.64 0.32 l0 26.04 c0.72 0.12 3.64 0.4 7.28 0.44 z"></path></g><g id="SvgjsG9523" featurekey="sloganFeature-0" transform="matrix(1.1411973171820327,0,0,1.1411973171820327,101.67621101411909,53.8062040026978)" fill="#fff"><path d="M1.66 19.96 l-0.5 -3.64 l0.78 0 c0.66 1.98 1.84 3 3.42 3 c1.32 0 2.32 -0.84 2.32 -1.96 c0 -2.98 -6.42 -2.88 -6.42 -6.84 c0 -1.92 1.68 -3.26 4.06 -3.26 c1.54 0 2.74 0.52 3.04 0.52 c0.14 0 0.26 -0.04 0.44 -0.22 l0.42 0 l0.38 3.24 l-0.8 0 c-0.44 -1.62 -1.72 -2.68 -3.26 -2.68 c-1.12 0 -1.96 0.6 -1.96 1.38 c0 1.84 3.32 2.18 5.56 4.42 c0.82 0.82 1.14 1.68 1.14 2.64 c0 2.08 -1.88 3.72 -4.26 3.72 c-1.6 0 -3.06 -0.64 -3.42 -0.64 c-0.18 0 -0.32 0.1 -0.42 0.32 l-0.52 0 z M23.7 16.52 l-1.46 3.48 l-10.72 0 l0 -0.78 l0.34 0 c1.28 0 1.66 -0.46 1.66 -1.44 l0 -8 c0 -1.18 -0.68 -1.44 -1.58 -1.44 l-0.38 0 l0 -0.78 l6.78 0 l0 0.78 l-0.58 0 c-1.04 0 -1.48 0.46 -1.48 1.4 l0 8.24 c0 0.74 0.22 0.92 1 0.92 l2.54 0 c1.34 0 1.74 -0.66 3.08 -2.38 l0.8 0 z M24.38 13.98 c0 -3.96 3.2 -6.8 7.66 -6.8 c4.18 0 7.14 2.62 7.14 6.36 c0 3.56 -2.74 6.74 -7.52 6.74 c-4.6 0 -7.28 -2.94 -7.28 -6.3 z M27.36 13.02 c0 3.82 1.94 6.4 4.76 6.4 c2.78 0 4.08 -2.4 4.08 -5.16 c0 -3.22 -1.6 -6.22 -4.64 -6.22 c-2.54 0 -4.2 1.96 -4.2 4.98 z M55.379999999999995 14.02 l0 0.76 c-1.06 0.02 -1.42 0.34 -1.42 1.26 l0 2.98 c-1.44 0.66 -3.5 1.26 -5.22 1.26 c-5.06 0 -7.5 -2.82 -7.5 -6.66 c0 -3.66 3.02 -6.36 7.28 -6.36 c2.06 0 3.66 0.7 4.34 0.7 c0.3 0 0.46 -0.08 0.6 -0.26 l0.5 0 l0 3.66 l-0.8 0 c-0.54 -2.04 -2.06 -3.24 -4.14 -3.24 c-2.84 0 -4.8 2.24 -4.8 5.48 c0 3.28 2.06 5.72 4.84 5.72 c0.76 0 1.6 -0.2 2.14 -0.52 l0 -2.76 c0 -1 -0.42 -1.22 -2.46 -1.26 l0 -0.76 l6.64 0 z M64.7 15.379999999999999 l-4.38 0 l-0.84 2.34 c-0.36 1.02 -0.34 1.5 1.58 1.5 l0.26 0 l0 0.78 l-5.3 0 l0 -0.78 l0.3 0 c0.96 0 1.46 -0.44 1.96 -1.84 l3.42 -9.54 l-0.22 -0.58 l2.96 0 l4 10.16 c0.52 1.32 0.96 1.72 2 1.8 l0 0.78 l-6.5 0 l0 -0.78 l0.7 0 c1.22 0 1.4 -0.54 1 -1.52 z M64.24000000000001 14.280000000000001 l-1.84 -4.68 l-1.68 4.68 l3.52 0 z M73.98 10.04 l0 7.56 c0 1.22 0.38 1.62 1.98 1.62 l0 0.78 l-4.84 0 l0 -0.78 l0.12 0 c1.22 0 1.52 -0.44 1.52 -1.26 l0 -9.18 c-0.44 -0.3 -0.98 -0.44 -1.6 -0.44 l0 -0.78 l4.12 0 l8.16 8.52 l0 -6.04 c0 -1.44 -0.3 -1.7 -1.9 -1.7 l-0.2 0 l0 -0.78 l5.16 0 l0 0.78 l-0.2 0 c-1.24 0 -1.64 0.26 -1.64 1.02 l0 10.7 l-1.1 0 z M102.22 8.6 l0 9.12 c0 1.04 0.32 1.5 1.74 1.5 l0.48 0 l0 0.78 l-7.2 0 l0 -0.78 l0.68 0 c1.1 0 1.54 -0.44 1.54 -1.5 l0 -9.12 l-2.36 0 c-1.54 0 -1.78 0.24 -2.16 2.36 l-0.82 0 l0.36 -3.74 l0.64 0 c0.16 0.14 0.26 0.24 0.38 0.28 c0.14 0.04 0.3 0.06 0.58 0.06 l9.52 0 c0.54 0 0.64 -0.04 0.96 -0.34 l0.64 0 l0.36 3.74 l-0.82 0 c-0.38 -2.1 -0.62 -2.36 -2.16 -2.36 l-2.36 0 z M119 10.46 c-0.2 -1.36 -0.46 -1.8 -1.38 -1.8 l-4.38 0 l0 4.5 l3.24 0 c1.1 0 1.5 -0.38 1.5 -1.44 l0.8 0 l0 3.98 l-0.8 0 c0 -1.08 -0.26 -1.44 -1.8 -1.44 l-2.94 0 l0 3.6 c0 0.86 0.16 1.04 0.74 1.04 l3.34 0 c1.3 0 1.92 -0.36 2.3 -2.04 l0.76 0 l-0.24 3.14 l-12.04 0 l0 -0.78 l0.82 0 c1.16 0 1.56 -0.46 1.56 -1.44 l0 -7.98 c0 -1.08 -0.36 -1.46 -1.74 -1.46 l-0.2 0 l0 -0.78 l11.02 0 l0.2 2.9 l-0.76 0 z M128.46 14.98 l-3.08 3.16 c-0.64 0.64 -0.3 1.08 0.9 1.08 l0.44 0 l0 0.78 l-5.48 0 l0 -0.78 c1.38 -0.14 2.1 -0.64 3.34 -1.9 l3.14 -3.24 l-3 -3.76 c-1.22 -1.52 -1.88 -1.98 -2.88 -1.98 l-0.48 0 l0 -0.78 l7.58 0 l0 0.78 l-0.72 0 c-1.14 0 -1.26 0.42 -0.62 1.2 l2.04 2.54 l2.02 -2.12 c0.9 -0.96 1.08 -1.62 -0.24 -1.62 l-0.52 0 l0 -0.78 l5.4 0 l0 0.78 c-1.24 0 -1.94 0.46 -3.04 1.62 l-2.86 3.04 l3.58 4.46 c1.06 1.32 1.68 1.7 2.94 1.76 l0 0.78 l-7 0 l0 -0.78 l0.4 0 c0.88 0 1.38 -0.42 0.58 -1.36 z M145.76 8.6 l0 9.12 c0 1.04 0.32 1.5 1.74 1.5 l0.48 0 l0 0.78 l-7.2 0 l0 -0.78 l0.68 0 c1.1 0 1.54 -0.44 1.54 -1.5 l0 -9.12 l-2.36 0 c-1.54 0 -1.78 0.24 -2.16 2.36 l-0.82 0 l0.36 -3.74 l0.64 0 c0.16 0.14 0.26 0.24 0.38 0.28 c0.14 0.04 0.3 0.06 0.58 0.06 l9.52 0 c0.54 0 0.64 -0.04 0.96 -0.34 l0.64 0 l0.36 3.74 l-0.82 0 c-0.38 -2.1 -0.62 -2.36 -2.16 -2.36 l-2.36 0 z"></path></g></svg>