<?xml version="1.0" encoding="UTF-8"?> <svg xmlns="http://www.w3.org/2000/svg" width="198" height="312" viewBox="0 0 198 312" fill="none"> <g filter="url(#filter0_bi_14_1151)"> <rect x="11.0391" y="14.7188" width="186.438" height="76.0469" rx="8.58594" fill="black" fill-opacity="0.24"></rect> <rect x="11.4334" y="15.1131" width="185.649" height="75.2581" rx="8.19156" stroke="url(#paint0_linear_14_1151)" stroke-opacity="0.18" stroke-width="0.788761"></rect> <rect x="11.4334" y="15.1131" width="185.649" height="75.2581" rx="8.19156" stroke="url(#paint1_linear_14_1151)" stroke-opacity="0.32" stroke-width="0.788761"></rect> </g> <g filter="url(#filter1_bi_14_1151)"> <rect x="11.0391" y="125.109" width="186.438" height="76.0469" rx="8.58594" fill="black" fill-opacity="0.24"></rect> <rect x="11.4334" y="125.504" width="185.649" height="75.2581" rx="8.19156" stroke="url(#paint2_linear_14_1151)" stroke-opacity="0.18" stroke-width="0.788761"></rect> <rect x="11.4334" y="125.504" width="185.649" height="75.2581" rx="8.19156" stroke="url(#paint3_linear_14_1151)" stroke-opacity="0.32" stroke-width="0.788761"></rect> </g> <g filter="url(#filter2_bi_14_1151)"> <rect x="11.0391" y="235.5" width="186.438" height="76.0469" rx="8.58594" fill="black" fill-opacity="0.24"></rect> <rect x="11.4334" y="235.894" width="185.649" height="75.2581" rx="8.19156" stroke="url(#paint4_linear_14_1151)" stroke-opacity="0.18" stroke-width="0.788761"></rect> <rect x="11.4334" y="235.894" width="185.649" height="75.2581" rx="8.19156" stroke="url(#paint5_linear_14_1151)" stroke-opacity="0.32" stroke-width="0.788761"></rect> </g> <path d="M58.5488 157.683H54.8228V171.414H53.1208V157.683H49.3948V156.073H58.5488V157.683ZM59.2842 161.869H60.9402V168.171L67.4722 161.133V171.414H65.8162V165.043L59.2842 172.081V161.869ZM69.5005 171.414L71.8005 161.133L75.7565 168.907L79.6205 161.133L81.9205 171.414H80.2185L78.9535 165.503L75.7105 172.081L72.4215 165.503L71.2025 171.414H69.5005ZM91.3063 155.314H93.1463C92.9777 155.881 92.6863 156.364 92.2723 156.763C91.8737 157.146 91.5057 157.407 91.1683 157.545C90.8463 157.683 90.463 157.806 90.0183 157.913C89.9417 157.928 89.7577 157.974 89.4663 158.051C89.175 158.112 88.9527 158.166 88.7993 158.212C88.646 158.258 88.4467 158.319 88.2013 158.396C87.956 158.473 87.7337 158.565 87.5343 158.672C87.335 158.779 87.151 158.894 86.9823 159.017C86.3997 159.462 85.9243 160.083 85.5563 160.88C85.2037 161.662 85.012 162.498 84.9813 163.387H85.0273C85.7173 162.222 86.875 161.639 88.5003 161.639C89.9263 161.639 91.107 162.122 92.0423 163.088C92.993 164.054 93.4683 165.25 93.4683 166.676C93.4683 168.117 92.9853 169.313 92.0193 170.264C91.0533 171.215 89.796 171.69 88.2473 171.69C86.9133 171.69 85.817 171.291 84.9583 170.494C83.885 169.513 83.3483 167.872 83.3483 165.572C83.3483 161.57 84.253 158.948 86.0623 157.706C86.2003 157.614 86.346 157.53 86.4993 157.453C86.6527 157.361 86.8137 157.284 86.9823 157.223C87.1663 157.146 87.3197 157.085 87.4423 157.039C87.565 156.978 87.7337 156.924 87.9483 156.878C88.1783 156.817 88.3317 156.778 88.4083 156.763C88.5003 156.732 88.669 156.694 88.9143 156.648C89.175 156.587 89.336 156.548 89.3973 156.533C90.0107 156.395 90.4553 156.234 90.7313 156.05C91.0073 155.851 91.199 155.605 91.3063 155.314ZM90.7773 164.054C90.1333 163.425 89.3437 163.111 88.4083 163.111C87.473 163.111 86.6757 163.433 86.0163 164.077C85.3723 164.706 85.0503 165.572 85.0503 166.676C85.0503 167.78 85.38 168.646 86.0393 169.275C86.6987 169.904 87.4883 170.218 88.4083 170.218C89.3283 170.218 90.118 169.904 90.7773 169.275C91.4367 168.646 91.7663 167.78 91.7663 166.676C91.7663 165.557 91.4367 164.683 90.7773 164.054ZM96.0078 161.869H97.6638V168.171L104.196 161.133V171.414H102.54V165.043L96.0078 172.081V161.869ZM114.55 161.869V171.414H112.894V163.387H109.49V167.688C109.49 168.93 109.245 169.85 108.754 170.448C108.202 171.123 107.435 171.46 106.454 171.46C106.331 171.46 106.163 171.445 105.948 171.414V169.896C106.101 169.927 106.224 169.942 106.316 169.942C106.853 169.942 107.251 169.735 107.512 169.321C107.727 168.984 107.834 168.439 107.834 167.688V161.869H114.55ZM118.373 161.869H125.089V169.896H126.515V173.944H124.997V171.414H117.729V173.944H116.211V169.896C117.008 169.881 117.598 169.467 117.982 168.654C118.242 168.117 118.373 167.274 118.373 166.124V161.869ZM123.433 169.896V163.387H120.029V166.975C120.029 168.248 119.645 169.221 118.879 169.896H123.433ZM128.262 161.869H129.918V168.171L136.45 161.133V171.414H134.794V165.043L128.262 172.081V161.869ZM139.582 171.414V161.869H141.238V165.779H145.746V161.869H147.402V171.414H145.746V167.297H141.238V171.414H139.582ZM150.521 171.414V161.869H156.179V163.387H152.177V171.414H150.521ZM157.843 161.869H159.499V168.171L166.031 161.133V171.414H164.375V165.043L157.843 172.081V161.869Z" fill="white"></path> <path d="M47.7142 266.464V273.042L54.2462 266.464H56.5462L49.3702 273.617L56.7762 281.805H54.4302L48.1512 274.767L47.7142 275.204V281.805H46.0122V266.464H47.7142ZM65.7776 280.655C64.827 281.605 63.6233 282.081 62.1666 282.081C60.71 282.081 59.4986 281.605 58.5326 280.655C57.582 279.704 57.1066 278.508 57.1066 277.067C57.1066 275.61 57.582 274.406 58.5326 273.456C59.4986 272.505 60.71 272.03 62.1666 272.03C63.6233 272.03 64.827 272.505 65.7776 273.456C66.7436 274.406 67.2266 275.61 67.2266 277.067C67.2266 278.508 66.7436 279.704 65.7776 280.655ZM64.5356 274.445C63.8916 273.816 63.102 273.502 62.1666 273.502C61.2313 273.502 60.434 273.824 59.7746 274.468C59.1306 275.096 58.8086 275.963 58.8086 277.067C58.8086 278.171 59.1383 279.037 59.7976 279.666C60.457 280.294 61.2466 280.609 62.1666 280.609C63.0866 280.609 63.8763 280.294 64.5356 279.666C65.195 279.037 65.5246 278.171 65.5246 277.067C65.5246 275.947 65.195 275.073 64.5356 274.445ZM69.7661 281.805V272.26H71.4221V276.17H75.9301V272.26H77.5861V281.805H75.9301V277.688H71.4221V281.805H69.7661ZM85.7876 287.095V281.966C84.1163 281.966 82.7746 281.552 81.7626 280.724C80.6586 279.834 80.1066 278.6 80.1066 277.021C80.1066 275.457 80.651 274.23 81.7396 273.341C82.721 272.513 84.0703 272.099 85.7876 272.099V266.464H87.4436V272.099C89.161 272.099 90.5103 272.513 91.4916 273.341C92.5803 274.23 93.1246 275.457 93.1246 277.021C93.1246 278.6 92.5726 279.834 91.4686 280.724C90.4566 281.552 89.115 281.966 87.4436 281.966V287.095H85.7876ZM85.7876 280.494V273.571C84.699 273.571 83.848 273.77 83.2346 274.169C82.284 274.767 81.8086 275.717 81.8086 277.021C81.8086 278.247 82.2533 279.175 83.1426 279.804C83.7866 280.264 84.6683 280.494 85.7876 280.494ZM87.4436 273.571V280.494C88.563 280.494 89.4446 280.264 90.0886 279.804C90.978 279.175 91.4226 278.247 91.4226 277.021C91.4226 275.717 90.9473 274.767 89.9966 274.169C89.3833 273.77 88.5323 273.571 87.4436 273.571ZM102.748 278.608L104.128 279.367C103.806 279.98 103.415 280.494 102.955 280.908C102.081 281.69 101.023 282.081 99.7806 282.081C98.4926 282.081 97.3809 281.667 96.4456 280.839C95.5256 279.995 95.0656 278.746 95.0656 277.09C95.0656 275.633 95.4796 274.429 96.3076 273.479C97.1509 272.513 98.2779 272.03 99.6886 272.03C101.283 272.03 102.487 272.612 103.3 273.778C103.944 274.698 104.243 275.894 104.197 277.366H96.7676C96.7829 278.332 97.0819 279.114 97.6646 279.712C98.2473 280.31 98.9603 280.609 99.8036 280.609C100.555 280.609 101.207 280.379 101.759 279.919C102.188 279.551 102.518 279.114 102.748 278.608ZM96.8826 275.986H102.495C102.357 275.234 102.027 274.636 101.506 274.192C101 273.732 100.394 273.502 99.6886 273.502C98.9986 273.502 98.3853 273.739 97.8486 274.215C97.3273 274.675 97.0053 275.265 96.8826 275.986ZM108.393 280.471V287.095H106.737V272.26H108.393V273.594C109.236 272.551 110.325 272.03 111.659 272.03C113.085 272.03 114.212 272.536 115.04 273.548C115.883 274.544 116.305 275.725 116.305 277.09C116.305 278.47 115.891 279.65 115.063 280.632C114.235 281.598 113.123 282.081 111.728 282.081C110.333 282.081 109.221 281.544 108.393 280.471ZM111.498 280.609C112.433 280.609 113.185 280.271 113.752 279.597C114.319 278.907 114.603 278.071 114.603 277.09C114.603 275.986 114.289 275.112 113.66 274.468C113.031 273.824 112.303 273.502 111.475 273.502C110.647 273.502 109.911 273.824 109.267 274.468C108.623 275.112 108.301 275.978 108.301 277.067C108.301 278.063 108.592 278.907 109.175 279.597C109.773 280.271 110.547 280.609 111.498 280.609ZM125.927 278.608L127.307 279.367C126.985 279.98 126.594 280.494 126.134 280.908C125.26 281.69 124.202 282.081 122.96 282.081C121.672 282.081 120.561 281.667 119.625 280.839C118.705 279.995 118.245 278.746 118.245 277.09C118.245 275.633 118.659 274.429 119.487 273.479C120.331 272.513 121.458 272.03 122.868 272.03C124.463 272.03 125.667 272.612 126.479 273.778C127.123 274.698 127.422 275.894 127.376 277.366H119.947C119.963 278.332 120.262 279.114 120.844 279.712C121.427 280.31 122.14 280.609 122.983 280.609C123.735 280.609 124.386 280.379 124.938 279.919C125.368 279.551 125.697 279.114 125.927 278.608ZM120.062 275.986H125.674C125.536 275.234 125.207 274.636 124.685 274.192C124.179 273.732 123.574 273.502 122.868 273.502C122.178 273.502 121.565 273.739 121.028 274.215C120.507 274.675 120.185 275.265 120.062 275.986ZM129.917 281.805V272.26H131.573V276.17H136.081V272.26H137.737V281.805H136.081V277.688H131.573V281.805H129.917ZM140.855 281.805V272.26H142.511V280.287H146.789V272.26H148.445V280.287H150.009V284.335H148.491V281.805H140.855ZM151.749 272.26H153.405V278.562L159.937 271.524V281.805H158.281V275.434L151.749 282.472V272.26ZM163.069 272.26H164.725V278.562L171.257 271.524V281.805H169.601V275.434L163.069 282.472V272.26Z" fill="white"></path> <path d="M47.7392 45.6824H59.0092V61.0234H57.3072V47.2924H49.4412V61.0234H47.7392V45.6824ZM64.2097 59.6894V66.3134H62.5537V51.4784H64.2097V52.8124C65.0531 51.7698 66.1417 51.2484 67.4757 51.2484C68.9017 51.2484 70.0287 51.7544 70.8567 52.7664C71.7001 53.7631 72.1217 54.9438 72.1217 56.3084C72.1217 57.6884 71.7077 58.8691 70.8797 59.8504C70.0517 60.8164 68.9401 61.2994 67.5447 61.2994C66.1494 61.2994 65.0377 60.7628 64.2097 59.6894ZM67.3147 59.8274C68.2501 59.8274 69.0014 59.4901 69.5687 58.8154C70.1361 58.1254 70.4197 57.2898 70.4197 56.3084C70.4197 55.2044 70.1054 54.3304 69.4767 53.6864C68.8481 53.0424 68.1197 52.7204 67.2917 52.7204C66.4637 52.7204 65.7277 53.0424 65.0837 53.6864C64.4397 54.3304 64.1177 55.1968 64.1177 56.2854C64.1177 57.2821 64.4091 58.1254 64.9917 58.8154C65.5897 59.4901 66.3641 59.8274 67.3147 59.8274ZM81.7442 57.8264L83.1242 58.5854C82.8022 59.1988 82.4112 59.7124 81.9512 60.1264C81.0772 60.9084 80.0192 61.2994 78.7772 61.2994C77.4892 61.2994 76.3775 60.8854 75.4422 60.0574C74.5222 59.2141 74.0622 57.9644 74.0622 56.3084C74.0622 54.8518 74.4762 53.6481 75.3042 52.6974C76.1475 51.7314 77.2745 51.2484 78.6852 51.2484C80.2799 51.2484 81.4835 51.8311 82.2962 52.9964C82.9402 53.9164 83.2392 55.1124 83.1932 56.5844H75.7642C75.7795 57.5504 76.0785 58.3324 76.6612 58.9304C77.2439 59.5284 77.9569 59.8274 78.8002 59.8274C79.5515 59.8274 80.2032 59.5974 80.7552 59.1374C81.1845 58.7694 81.5142 58.3324 81.7442 57.8264ZM75.8792 55.2044H81.4912C81.3532 54.4531 81.0235 53.8551 80.5022 53.4104C79.9962 52.9504 79.3905 52.7204 78.6852 52.7204C77.9952 52.7204 77.3819 52.9581 76.8452 53.4334C76.3239 53.8934 76.0019 54.4838 75.8792 55.2044ZM86.7508 53.9164L85.6008 52.9734C85.9688 52.4368 86.3752 52.0381 86.8198 51.7774C87.4178 51.4248 88.1155 51.2484 88.9128 51.2484C89.8788 51.2484 90.6302 51.4708 91.1668 51.9154C91.7188 52.3908 91.9948 52.9964 91.9948 53.7324C91.9948 54.6218 91.6345 55.2888 90.9138 55.7334C91.3738 55.8408 91.7418 56.0478 92.0178 56.3544C92.4625 56.8298 92.6848 57.4124 92.6848 58.1024C92.6848 59.1298 92.2708 59.9501 91.4428 60.5634C90.7682 61.0541 89.8635 61.2994 88.7288 61.2994C87.7168 61.2994 86.8658 61.0311 86.1758 60.4944C85.6545 60.1111 85.2328 59.5668 84.9108 58.8614L86.3368 58.2634C86.5055 58.6928 86.7892 59.0531 87.1878 59.3444C87.6172 59.6664 88.1385 59.8274 88.7518 59.8274C89.4725 59.8274 90.0092 59.7048 90.3618 59.4594C90.8065 59.1681 91.0288 58.7234 91.0288 58.1254C91.0288 57.6348 90.8372 57.2668 90.4538 57.0214C90.1318 56.8068 89.6105 56.6994 88.8898 56.6994H87.9238V55.1814H88.7288C89.3115 55.1814 89.7255 55.0971 89.9708 54.9284C90.3082 54.7138 90.4768 54.4224 90.4768 54.0544C90.4768 53.6251 90.3388 53.2954 90.0628 53.0654C89.8022 52.8354 89.3958 52.7204 88.8438 52.7204C88.3685 52.7204 87.9315 52.8431 87.5328 53.0884C87.1955 53.3031 86.9348 53.5791 86.7508 53.9164ZM102.296 57.8264L103.676 58.5854C103.354 59.1988 102.963 59.7124 102.503 60.1264C101.629 60.9084 100.571 61.2994 99.3289 61.2994C98.0409 61.2994 96.9293 60.8854 95.9939 60.0574C95.0739 59.2141 94.6139 57.9644 94.6139 56.3084C94.6139 54.8518 95.0279 53.6481 95.8559 52.6974C96.6993 51.7314 97.8263 51.2484 99.2369 51.2484C100.832 51.2484 102.035 51.8311 102.848 52.9964C103.492 53.9164 103.791 55.1124 103.745 56.5844H96.3159C96.3313 57.5504 96.6303 58.3324 97.2129 58.9304C97.7956 59.5284 98.5086 59.8274 99.3519 59.8274C100.103 59.8274 100.755 59.5974 101.307 59.1374C101.736 58.7694 102.066 58.3324 102.296 57.8264ZM96.4309 55.2044H102.043C101.905 54.4531 101.575 53.8551 101.054 53.4104C100.548 52.9504 99.9423 52.7204 99.2369 52.7204C98.5469 52.7204 97.9336 52.9581 97.3969 53.4334C96.8756 53.8934 96.5536 54.4838 96.4309 55.2044ZM106.285 61.0234V51.4784H107.941V55.3884H112.449V51.4784H114.105V61.0234H112.449V56.9064H107.941V61.0234H106.285ZM123.48 52.9964H120.49V61.0234H118.834V52.9964H115.844V51.4784H123.48V52.9964ZM132.242 52.8354V51.4784H133.898V61.0234H132.242V59.6894C131.414 60.7628 130.325 61.2994 128.976 61.2994C127.688 61.2994 126.591 60.8548 125.687 59.9654C124.782 59.0761 124.33 57.8341 124.33 56.2394C124.33 54.6754 124.774 53.4564 125.664 52.5824C126.568 51.6931 127.672 51.2484 128.976 51.2484C130.356 51.2484 131.444 51.7774 132.242 52.8354ZM129.16 52.7204C128.286 52.7204 127.542 53.0348 126.929 53.6634C126.331 54.2768 126.032 55.1354 126.032 56.2394C126.032 57.2974 126.308 58.1638 126.86 58.8384C127.427 59.4978 128.194 59.8274 129.16 59.8274C130.126 59.8274 130.892 59.4824 131.46 58.7924C132.042 58.1024 132.334 57.2591 132.334 56.2624C132.334 55.1278 132.012 54.2538 131.368 53.6404C130.724 53.0271 129.988 52.7204 129.16 52.7204ZM137.034 61.0234V51.4784H138.69V59.5054H142.968V51.4784H144.624V59.5054H146.188V63.5534H144.67V61.0234H137.034ZM147.928 51.4784H149.584V57.7804L156.116 50.7424V61.0234H154.46V54.6524L147.928 61.6904V51.4784ZM159.248 51.4784H160.904V57.7804L167.436 50.7424V61.0234H165.78V54.6524L159.248 61.6904V51.4784Z" fill="white"></path> <circle cx="14.1055" cy="14.1055" r="14.1055" fill="#F1F2B9"></circle> <circle cx="14.1055" cy="14.1055" r="14.1055" fill="url(#paint6_linear_14_1151)" fill-opacity="0.9"></circle> <path d="M9.8125 13.4922L13.4922 17.1719L20.8516 9.8125" stroke="#0F0F0F" stroke-width="1.43763" stroke-linecap="round" stroke-linejoin="round"></path> <circle cx="14.1055" cy="125.723" r="14.1055" fill="#F1F2B9"></circle> <circle cx="14.1055" cy="125.723" r="14.1055" fill="url(#paint7_linear_14_1151)" fill-opacity="0.9"></circle> <path d="M9.8125 125.109L13.4922 128.789L20.8516 121.43" stroke="#0F0F0F" stroke-width="1.43763" stroke-linecap="round" stroke-linejoin="round"></path> <circle cx="14.1055" cy="237.34" r="14.1055" fill="#F1F2B9"></circle> <circle cx="14.1055" cy="237.34" r="14.1055" fill="url(#paint8_linear_14_1151)" fill-opacity="0.9"></circle> <path d="M9.8125 236.727L13.4922 240.406L20.8516 233.047" stroke="#0F0F0F" stroke-width="1.43763" stroke-linecap="round" stroke-linejoin="round"></path> <defs> <filter id="filter0_bi_14_1151" x="-23.3047" y="-19.625" width="255.125" height="144.734" filterUnits="userSpaceOnUse" color-interpolation-filters="sRGB"> <feFlood flood-opacity="0" result="BackgroundImageFix"></feFlood> <feGaussianBlur in="BackgroundImageFix" stdDeviation="17.1719"></feGaussianBlur> <feComposite in2="SourceAlpha" operator="in" result="effect1_backgroundBlur_14_1151"></feComposite> <feBlend mode="normal" in="SourceGraphic" in2="effect1_backgroundBlur_14_1151" result="shape"></feBlend> <feColorMatrix in="SourceAlpha" type="matrix" values="0 0 0 0 0 0 0 0 0 0 0 0 0 0 0 0 0 0 127 0" result="hardAlpha"></feColorMatrix> <feOffset></feOffset> <feGaussianBlur stdDeviation="1.83984"></feGaussianBlur> <feComposite in2="hardAlpha" operator="arithmetic" k2="-1" k3="1"></feComposite> <feColorMatrix type="matrix" values="0 0 0 0 1 0 0 0 0 1 0 0 0 0 1 0 0 0 0.09 0"></feColorMatrix> <feBlend mode="normal" in2="shape" result="effect2_innerShadow_14_1151"></feBlend> </filter> <filter id="filter1_bi_14_1151" x="-23.3047" y="90.7656" width="255.125" height="144.734" filterUnits="userSpaceOnUse" color-interpolation-filters="sRGB"> <feFlood flood-opacity="0" result="BackgroundImageFix"></feFlood> <feGaussianBlur in="BackgroundImageFix" stdDeviation="17.1719"></feGaussianBlur> <feComposite in2="SourceAlpha" operator="in" result="effect1_backgroundBlur_14_1151"></feComposite> <feBlend mode="normal" in="SourceGraphic" in2="effect1_backgroundBlur_14_1151" result="shape"></feBlend> <feColorMatrix in="SourceAlpha" type="matrix" values="0 0 0 0 0 0 0 0 0 0 0 0 0 0 0 0 0 0 127 0" result="hardAlpha"></feColorMatrix> <feOffset></feOffset> <feGaussianBlur stdDeviation="1.83984"></feGaussianBlur> <feComposite in2="hardAlpha" operator="arithmetic" k2="-1" k3="1"></feComposite> <feColorMatrix type="matrix" values="0 0 0 0 1 0 0 0 0 1 0 0 0 0 1 0 0 0 0.09 0"></feColorMatrix> <feBlend mode="normal" in2="shape" result="effect2_innerShadow_14_1151"></feBlend> </filter> <filter id="filter2_bi_14_1151" x="-23.3047" y="201.156" width="255.125" height="144.734" filterUnits="userSpaceOnUse" color-interpolation-filters="sRGB"> <feFlood flood-opacity="0" result="BackgroundImageFix"></feFlood> <feGaussianBlur in="BackgroundImageFix" stdDeviation="17.1719"></feGaussianBlur> <feComposite in2="SourceAlpha" operator="in" result="effect1_backgroundBlur_14_1151"></feComposite> <feBlend mode="normal" in="SourceGraphic" in2="effect1_backgroundBlur_14_1151" result="shape"></feBlend> <feColorMatrix in="SourceAlpha" type="matrix" values="0 0 0 0 0 0 0 0 0 0 0 0 0 0 0 0 0 0 127 0" result="hardAlpha"></feColorMatrix> <feOffset></feOffset> <feGaussianBlur stdDeviation="1.83984"></feGaussianBlur> <feComposite in2="hardAlpha" operator="arithmetic" k2="-1" k3="1"></feComposite> <feColorMatrix type="matrix" values="0 0 0 0 1 0 0 0 0 1 0 0 0 0 1 0 0 0 0.09 0"></feColorMatrix> <feBlend mode="normal" in2="shape" result="effect2_innerShadow_14_1151"></feBlend> </filter> <linearGradient id="paint0_linear_14_1151" x1="97.8598" y1="14.7187" x2="101.446" y2="100.498" gradientUnits="userSpaceOnUse"> <stop stop-color="#F0D9D9"></stop> <stop offset="1" stop-color="#C4C4C4" stop-opacity="0.7"></stop> </linearGradient> <linearGradient id="paint1_linear_14_1151" x1="24.2214" y1="-6.56274" x2="158.364" y2="48.6522" gradientUnits="userSpaceOnUse"> <stop stop-color="white" stop-opacity="0"></stop> <stop offset="0.526042" stop-color="white"></stop> <stop offset="1" stop-color="white" stop-opacity="0"></stop> </linearGradient> <linearGradient id="paint2_linear_14_1151" x1="97.8598" y1="125.109" x2="101.446" y2="210.888" gradientUnits="userSpaceOnUse"> <stop stop-color="#F0D9D9"></stop> <stop offset="1" stop-color="#C4C4C4" stop-opacity="0.7"></stop> </linearGradient> <linearGradient id="paint3_linear_14_1151" x1="24.2214" y1="103.828" x2="158.364" y2="159.043" gradientUnits="userSpaceOnUse"> <stop stop-color="white" stop-opacity="0"></stop> <stop offset="0.526042" stop-color="white"></stop> <stop offset="1" stop-color="white" stop-opacity="0"></stop> </linearGradient> <linearGradient id="paint4_linear_14_1151" x1="97.8598" y1="235.5" x2="101.446" y2="321.279" gradientUnits="userSpaceOnUse"> <stop stop-color="#F0D9D9"></stop> <stop offset="1" stop-color="#C4C4C4" stop-opacity="0.7"></stop> </linearGradient> <linearGradient id="paint5_linear_14_1151" x1="24.2214" y1="214.219" x2="158.364" y2="269.433" gradientUnits="userSpaceOnUse"> <stop stop-color="white" stop-opacity="0"></stop> <stop offset="0.526042" stop-color="white"></stop> <stop offset="1" stop-color="white" stop-opacity="0"></stop> </linearGradient> <linearGradient id="paint6_linear_14_1151" x1="4.67425" y1="-5.85735" x2="36.4679" y2="4.7712" gradientUnits="userSpaceOnUse"> <stop stop-color="white" stop-opacity="0"></stop> <stop offset="0.453125" stop-color="white" stop-opacity="0.54"></stop> <stop offset="1" stop-color="white" stop-opacity="0"></stop> </linearGradient> <linearGradient id="paint7_linear_14_1151" x1="4.67425" y1="105.76" x2="36.4679" y2="116.388" gradientUnits="userSpaceOnUse"> <stop stop-color="white" stop-opacity="0"></stop> <stop offset="0.453125" stop-color="white" stop-opacity="0.54"></stop> <stop offset="1" stop-color="white" stop-opacity="0"></stop> </linearGradient> <linearGradient id="paint8_linear_14_1151" x1="4.67425" y1="217.377" x2="36.4679" y2="228.006" gradientUnits="userSpaceOnUse"> <stop stop-color="white" stop-opacity="0"></stop> <stop offset="0.453125" stop-color="white" stop-opacity="0.54"></stop> <stop offset="1" stop-color="white" stop-opacity="0"></stop> </linearGradient> </defs> </svg> 