<svg xmlns="http://www.w3.org/2000/svg" xmlns:xlink="http://www.w3.org/1999/xlink" version="1.1" width="250" height="80" viewBox="-42.86 -132.86 820 180" xml:space="preserve" style="
    width: 250px;
    height: auto;
">
<g transform="matrix(2.09 0 0 2.09 358.09 -38.71)">
<g style="" vector-effect="non-scaling-stroke">
		<g transform="matrix(1.01 0 0 1.01 -147.24 -0.78)">
<path style="stroke: none; stroke-width: 1; stroke-dasharray: none; stroke-linecap: butt; stroke-dashoffset: 0; stroke-linejoin: miter; stroke-miterlimit: 4; fill: rgb(255,255,255); fill-rule: evenodd; opacity: 1;" vector-effect="non-scaling-stroke" transform=" translate(-48.46, -49.5)" d="M 44.516 31.751 C 44.738 30.53 44.567 29.104000000000003 45.144999999999996 28.666 C 49.083999999999996 25.67 47.54 21.481 47.69199999999999 17.718 C 47.864999999999995 13.440000000000001 47.73199999999999 9.149 47.73199999999999 4.862 C 48.18099999999999 4.8500000000000005 48.62899999999999 4.837 49.07799999999999 4.825 C 49.07799999999999 6.683 49.07799999999999 8.54 49.07799999999999 10.397 C 49.07799999999999 13.897 49.048999999999985 17.398 49.08599999999999 20.898 C 49.11399999999999 23.528 48.39799999999999 26.314 51.38199999999999 28.186 C 52.13199999999999 28.658 52.07099999999999 30.42 52.47599999999999 31.931 C 62.145999999999994 33.666000000000004 70.139 38.467 75.332 47.334 C 79.288 54.087 80.356 61.416000000000004 78.985 69.017 C 76.38 83.462 62.521 94.543 47.829 94.167 C 33.033 93.786 19.832 82.505 17.741 68.18 C 15.441 52.412 23.947 35.872 44.516 31.751 z M 41.678 68.753 C 46.07299999999999 68.753 50.108 68.753 54.181 68.753 C 54.181 64.371 54.181 60.328 54.181 56.332 C 49.840999999999994 56.332 45.809 56.332 41.678 56.332 C 41.678 60.554 41.678 64.41 41.678 68.753 z M 67.215 57.275 C 63.345000000000006 56.903999999999996 59.81400000000001 56.567 56.153000000000006 56.216 C 56.153000000000006 60.541000000000004 56.153000000000006 64.488 56.153000000000006 68.936 C 59.919000000000004 68.56800000000001 63.441 68.224 67.215 67.85600000000001 C 67.215 64.336 67.215 61.134 67.215 57.275 z M 54.402 54.504 C 54.095 51.306999999999995 53.975 48.576 53.487 45.913 C 53.349000000000004 45.157999999999994 52.196000000000005 44.131 51.415 44.038999999999994 C 49.211999999999996 43.77799999999999 46.938 43.766999999999996 44.738 44.023999999999994 C 43.932 44.117999999999995 42.735 45.154999999999994 42.603 45.91499999999999 C 42.124 48.651999999999994 42.027 51.45399999999999 41.761 54.50399999999999 C 44.951 54.50399999999999 47.787000000000006 54.50399999999999 50.623000000000005 54.50399999999999 C 51.719 54.504 52.816 54.504 54.402 54.504 z M 54.967 81.457 C 65.556 79.84299999999999 65.578 80.68799999999999 66.77 69.51899999999999 C 63.20099999999999 69.86999999999999 59.693 70.21499999999999 56.089999999999996 70.56899999999999 C 55.715 74.215 55.361 77.627 54.967 81.457 z M 29.844 69.515 C 31.437 80.148 31.634 80.355 41.031 81.261 C 40.679 77.655 40.336 74.12899999999999 39.981 70.49 C 36.53 70.158 33.356 69.854 29.844 69.515 z M 54.944 44.639 C 55.35 48.163000000000004 55.715 51.319 56.095000000000006 54.611000000000004 C 59.74900000000001 54.92400000000001 63.175000000000004 55.218 66.661 55.517 C 65.596 45.785 65.518 45.675 54.944 44.639 z M 41.112 44.418 C 31.748 45.391999999999996 29.721000000000004 47.592999999999996 30.625 55.545 C 33.774 55.213 36.922 54.879000000000005 40.041 54.550000000000004 C 40.418 50.977 40.744 47.897 41.112 44.418 z M 43.208 42.297 C 46.568999999999996 42.297 49.632999999999996 42.297 52.707 42.297 C 52.337 35.61 51.939 34.986 48.177 35.001999999999995 C 43.903 35.02 43.438 35.683 43.208 42.297 z M 27.876 57.853 C 20.368000000000002 58.576 19.995 58.904 20.603 64.174 C 20.882 66.599 23.474 67.54 27.876 66.739 C 27.876 63.797 27.876 60.83 27.876 57.853 z M 75.92 58.958 C 73.628 58.522 71.387 58.099 69.054 57.657 C 69.054 61.01199999999999 69.054 63.94499999999999 69.054 66.85499999999999 C 75.874 67.638 76.634 66.809 75.92 58.958 z M 43.283 83.738 C 44.218 90.877 44.463 91.206 49.34 90.67699999999999 C 54.084 90.16399999999999 51.46 86.178 53.275000000000006 83.738 C 49.487 83.738 46.552 83.738 43.283 83.738 z M 63.602 81.796 C 54.486 82.784 53.506 83.61500000000001 53.903999999999996 90.034 C 60.266 89.073 61.5 88.024 63.602 81.796 z M 32.942 44.421 C 41.701 43.487 43.018 42.272999999999996 42.178 35.983 C 36.874 36.34 34.014 39.412 32.942 44.421 z M 53.848 35.806 C 53.78 42.583999999999996 55.902 44.287 63.421 43.747 C 62.399 38.657 59.069 36.282 53.848 35.806 z M 75.263 68.042 C 68.117 69.241 67.658 69.845 67.372 78.06 C 73.593 76.071 75.113 74.192 75.263 68.042 z M 75.324 56.91 C 75.033 51.596999999999994 72.095 48.974 67.43599999999999 47.851 C 68.691 57.067 67.608 56.102 75.324 56.91 z M 25.422 46.427 C 25.681 46.683 25.941 46.937 26.2 47.191 C 29.747999999999998 46.247 32.57 44.607 32.7 39.549 C 29.981 42.119 27.702 44.272 25.422 46.427 z M 71.571 78.751 C 66.80799999999999 79.375 64.899 81.62700000000001 64.972 85.751 C 66.972 83.629 68.973 81.508 71.571 78.751 z M 25.572 79.477 C 27.65 81.525 29.727999999999998 83.575 32.510999999999996 86.318 C 31.999 81.316 29.718 79.469 25.572 79.477 z M 69.573 47.638 C 70.003 47.265 70.43299999999999 46.891999999999996 70.865 46.519 C 68.92 44.336 66.975 42.153999999999996 65.029 39.972 C 64.55799999999999 40.431000000000004 64.09 40.891 63.62 41.35 C 65.604 43.447 67.587 45.543 69.573 47.638 z M 51.695 30.17 C 50.005 29.166 49.098 28.192 48.346000000000004 28.299000000000003 C 47.568000000000005 28.411 46.944 29.575000000000003 46.253 30.279000000000003 C 46.941 30.827000000000005 47.613 31.791000000000004 48.319 31.814000000000004 C 49.146 31.842 50 31.049 51.695 30.17 z" stroke-linecap="round"></path>
</g>
		<g transform="matrix(1.01 0 0 1.01 -119.44 -15.19)">
<path style="stroke: none; stroke-width: 1; stroke-dasharray: none; stroke-linecap: butt; stroke-dashoffset: 0; stroke-linejoin: miter; stroke-miterlimit: 4; fill: rgb(255,255,255); fill-rule: evenodd; opacity: 1;" vector-effect="non-scaling-stroke" transform=" translate(-76.07, -35.27)" d="M 75.909 42.665 C 75.348 38.361 73.385 35.849 68.91300000000001 35.391 C 73.55900000000001 35.363 75.28800000000001 32.799 75.51100000000001 27.869 C 77.38100000000001 34.177 77.38100000000001 34.177 83.233 35.519 C 78.53 36.318 75.358 37.687 75.909 42.665 z" stroke-linecap="round"></path>
</g>
		<g transform="matrix(1.01 0 0 1.01 -170.26 -33.83)">
<path style="stroke: none; stroke-width: 1; stroke-dasharray: none; stroke-linecap: butt; stroke-dashoffset: 0; stroke-linejoin: miter; stroke-miterlimit: 4; fill: rgb(255,255,255); fill-rule: evenodd; opacity: 1;" vector-effect="non-scaling-stroke" transform=" translate(-25.68, -16.79)" d="M 25.515 24.186 C 24.953 19.881999999999998 22.991 17.37 18.518 16.913 C 23.165 16.885 24.893 14.321 25.116 9.39 C 26.986 15.699000000000002 26.986 15.699000000000002 32.837 17.04 C 28.134 17.84 24.964 19.209 25.515 24.186 z" stroke-linecap="round"></path>
</g>
		<g transform="matrix(1.01 0 0 1.01 -177.6 38.45)">
<path style="stroke: none; stroke-width: 1; stroke-dasharray: none; stroke-linecap: butt; stroke-dashoffset: 0; stroke-linejoin: miter; stroke-miterlimit: 4; fill: rgb(255,255,255); fill-rule: evenodd; opacity: 1;" vector-effect="non-scaling-stroke" transform=" translate(-18.4, -88.46)" d="M 18.235 95.858 C 17.674 91.553 15.713 89.042 11.238999999999999 88.58500000000001 C 15.886 88.557 17.613999999999997 85.992 17.837 81.06200000000001 C 19.708 87.37 19.708 87.37 25.558 88.71100000000001 C 20.855 89.513 17.685 90.881 18.235 95.858 z" stroke-linecap="round"></path>
</g>
		<g transform="matrix(1.01 0 0 1.01 -108.71 27.72)">
<path style="stroke: none; stroke-width: 1; stroke-dasharray: none; stroke-linecap: butt; stroke-dashoffset: 0; stroke-linejoin: miter; stroke-miterlimit: 4; fill: rgb(255,255,255); fill-rule: evenodd; opacity: 1;" vector-effect="non-scaling-stroke" transform=" translate(-86.71, -77.82)" d="M 86.549 85.22 C 85.98700000000001 80.91499999999999 84.025 78.404 79.551 77.946 C 84.199 77.919 85.926 75.355 86.149 70.42399999999999 C 88.02 76.734 88.02 76.734 93.872 78.074 C 89.168 78.874 85.997 80.242 86.549 85.22 z" stroke-linecap="round"></path>
</g>
		<g transform="matrix(0.9 0 0 0.9 52.11 -16.96)">
<path style="stroke: none; stroke-width: 1; stroke-dasharray: none; stroke-linecap: butt; stroke-dashoffset: 0; stroke-linejoin: miter; stroke-miterlimit: 4; fill: rgb(255,255,255); fill-rule: nonzero; opacity: 1;" vector-effect="non-scaling-stroke" transform=" translate(-149.22, -26.06)" d="M 20.08 40 L 17.479999999999997 32.84 L 3.719999999999997 32.84 L 1.239999999999997 40 L 0.39999999999999714 40 L 10.319999999999997 12 L 12.399999999999997 12 L 22.439999999999998 40 L 20.08 40 z M 4 32.12 L 17.240000000000002 32.12 L 10.480000000000002 13.439999999999998 z M 48.8 26.08 C 48.8 34.48 43.4 40.44 35.959999999999994 40.44 C 28.679999999999993 40.44 23.239999999999995 34.48 23.239999999999995 26.04 C 23.239999999999995 17.64 28.679999999999996 11.68 36.35999999999999 11.68 C 40.35999999999999 11.68 43.47999999999999 13.44 45.79999999999999 16.2 L 43.71999999999999 17.28 C 41.51999999999999 14.440000000000001 38.71999999999999 12.600000000000001 35.19999999999999 12.600000000000001 C 28.759999999999987 12.600000000000001 24.719999999999988 18.16 25.399999999999988 26.04 C 26.079999999999988 33.92 31.119999999999987 39.519999999999996 37.11999999999999 39.519999999999996 C 43.07999999999999 39.519999999999996 47.07999999999999 34.279999999999994 46.67999999999999 26.799999999999997 L 39.519999999999996 26.799999999999997 L 39.519999999999996 26.08 L 48.8 26.08 z M 69.88 40 L 67.28 32.84 L 53.52 32.84 L 51.040000000000006 40 L 50.2 40 L 60.120000000000005 12 L 62.2 12 L 72.24000000000001 40 L 69.88000000000001 40 z M 53.8 32.12 L 67.03999999999999 32.12 L 60.279999999999994 13.439999999999998 z M 93.24000000000001 12.719999999999999 L 76.96000000000001 12.719999999999999 L 76.96000000000001 26.119999999999997 L 91.72000000000001 26.119999999999997 L 91.72000000000001 26.839999999999996 L 76.96000000000001 26.839999999999996 L 76.96000000000001 40 L 74.64000000000001 40 L 74.64000000000001 12 L 93.24000000000001 12 L 93.24000000000001 12.72 z M 138.36 12 L 139.20000000000002 12 L 139.20000000000002 40 L 137.68 40 L 121.32000000000001 22.56 C 121.52000000000001 23.68 121.64 24.84 121.64 26.04 C 121.64 34.48 116.24 40.44 108.56 40.44 C 100.88000000000001 40.44 95.44 34.48 95.44 26.04 C 95.44 17.64 100.88 11.68 108.56 11.68 C 112.56 11.68 115.92 13.28 118.24000000000001 16.04 L 138.36 37.44 L 138.36 11.999999999999996 z M 109.72000000000001 39.52 C 116.12000000000002 39.52 120.16000000000001 33.92 119.48000000000002 26.040000000000003 C 118.80000000000003 18.160000000000004 113.76000000000002 12.600000000000003 107.40000000000002 12.600000000000003 C 100.96000000000002 12.600000000000003 96.92000000000002 18.160000000000004 97.60000000000002 26.040000000000003 C 98.28000000000003 33.92 103.32000000000002 39.52 109.72000000000003 39.52 z M 155.12 40.44 C 147.44 40.44 142 34.48 142 26.04 C 142 17.64 147.44 11.68 155.12 11.68 C 162.8 11.68 168.20000000000002 17.64 168.20000000000002 26.04 C 168.20000000000002 34.48 162.8 40.44 155.12 40.44 z M 156.28 39.52 C 162.68 39.52 166.72 33.92 166.04 26.040000000000003 C 165.35999999999999 18.160000000000004 160.32 12.600000000000003 153.95999999999998 12.600000000000003 C 147.51999999999998 12.600000000000003 143.48 18.160000000000004 144.15999999999997 26.040000000000003 C 144.83999999999995 33.92 149.87999999999997 39.52 156.27999999999997 39.52 z M 191.84 12 L 181.92000000000002 40 L 179.84 40 L 169.8 12 L 172.16000000000003 12 L 181.60000000000002 38.08 L 191.00000000000003 12 L 191.84000000000003 12 z M 224.24 12 L 225 12 L 215.88 40 L 213.88 40 L 208.84 25.96 L 203.88 40 L 201.88 40 L 192.64 12 L 195 12 L 203.64 38.08 L 208.44 24.799999999999997 L 203.84 11.999999999999996 L 206.20000000000002 11.999999999999996 L 209.64000000000001 21.479999999999997 L 213.04000000000002 11.999999999999996 L 213.8 11.999999999999996 L 210.04000000000002 22.599999999999994 L 215.64000000000001 38.08 z M 246 12.719999999999999 L 229.72 12.719999999999999 L 229.72 25.32 L 244.48 25.32 L 244.48 26.04 L 229.72 26.04 L 229.72 39.28 L 246 39.28 L 246 40 L 227.4 40 L 227.4 12 L 246 12 L 246 12.72 z M 257.4 11.760000000000002 C 266.52 11.920000000000002 271.91999999999996 17.8 271.91999999999996 26 C 271.91999999999996 34.2 266.52 39.88 258.84 40 C 255.99999999999997 40.04 254.79999999999998 40.04 248.99999999999997 40 L 248.99999999999997 12 C 253.23999999999998 11.88 254.27999999999997 11.72 257.4 11.76 z M 258.6 39.32 C 266.40000000000003 39.4 270.44 33.64 269.76000000000005 26 C 269.08000000000004 18.32 264.04 12.52 256.96000000000004 12.52 C 254.44000000000003 12.52 252.28000000000003 12.76 251.32000000000005 12.84 L 251.32000000000005 38.879999999999995 C 252.04000000000005 38.99999999999999 254.96000000000004 39.279999999999994 258.6 39.31999999999999 z M 283.52 11.760000000000002 C 292.64 11.920000000000002 298.03999999999996 17.8 298.03999999999996 26 C 298.03999999999996 34.2 292.64 39.88 284.96 40 C 282.12 40.04 280.91999999999996 40.04 275.12 40 L 275.12 12 C 279.36 11.88 280.4 11.72 283.52 11.76 z M 284.72 39.32 C 292.52000000000004 39.4 296.56 33.64 295.88000000000005 26 C 295.20000000000005 18.32 290.16 12.52 283.08000000000004 12.52 C 280.56000000000006 12.52 278.40000000000003 12.76 277.44000000000005 12.84 L 277.44000000000005 38.879999999999995 C 278.1600000000001 38.99999999999999 281.08000000000004 39.279999999999994 284.72 39.31999999999999 z" stroke-linecap="round"></path>
</g>
</g>
</g>
<g transform="matrix(1.23 0 0 1.23 385.96 9.9)" style="" id="f7ad9d1d-d8e5-4235-8197-ee11f9a5468b">
		<text xml:space="preserve" font-family="Lato" font-size="40" font-style="normal" font-weight="400" style="stroke: none; stroke-width: 1; stroke-dasharray: none; stroke-linecap: butt; stroke-dashoffset: 0; stroke-linejoin: miter; stroke-miterlimit: 4; fill: rgb(255,255,255); fill-rule: nonzero; opacity: 1; white-space: pre;"><tspan x="-160.27" y="12.57">Ведущий Москва</tspan></text>
</g>
</svg>